<svg width="230" height="117" viewBox="0 0 230 117" fill="none" xmlns="http://www.w3.org/2000/svg">
<path d="M6.38716 108.14C5.29462 108.14 4.4542 107.846 3.86591 107.258C3.27762 106.67 2.98348 105.829 2.98348 104.737V81.9194C2.98348 80.8268 3.27762 79.9864 3.86591 79.3981C4.4542 78.8098 5.29462 78.5157 6.38716 78.5157H16.5562C18.6572 78.5157 20.4501 78.8238 21.9349 79.4401C23.4196 80.0565 24.5401 80.9389 25.2965 82.0875C26.0809 83.236 26.4731 84.6087 26.4731 86.2055C26.4731 87.9704 25.9689 89.4691 24.9604 90.7017C23.9519 91.9343 22.5652 92.7607 20.8003 93.1809V92.5086C22.8453 92.8728 24.4281 93.6852 25.5486 94.9458C26.6972 96.1784 27.2715 97.7892 27.2715 99.7782C27.2715 102.412 26.361 104.471 24.5401 105.955C22.7192 107.412 20.212 108.14 17.0184 108.14H6.38716ZM9.20255 103.308H16.136C17.8168 103.308 19.0494 102.986 19.8338 102.341C20.6182 101.669 21.0104 100.689 21.0104 99.4C21.0104 98.1114 20.6182 97.1449 19.8338 96.5006C19.0494 95.8563 17.8168 95.5341 16.136 95.5341H9.20255V103.308ZM9.20255 90.7017H15.4216C17.0464 90.7017 18.251 90.3936 19.0354 89.7773C19.8198 89.161 20.212 88.2365 20.212 87.0039C20.212 85.7993 19.8198 84.8888 19.0354 84.2725C18.251 83.6562 17.0464 83.3481 15.4216 83.3481H9.20255V90.7017ZM216.994 108.603C215.761 108.603 214.487 108.491 213.17 108.266C211.882 108.042 210.705 107.664 209.64 107.132C209.08 106.852 208.674 106.502 208.422 106.081C208.198 105.633 208.1 105.185 208.128 104.737C208.156 104.288 208.296 103.882 208.548 103.518C208.828 103.154 209.178 102.916 209.598 102.804C210.047 102.664 210.537 102.706 211.069 102.93C212.218 103.406 213.268 103.742 214.221 103.938C215.173 104.134 216.112 104.232 217.036 104.232C218.241 104.232 219.109 104.05 219.641 103.686C220.202 103.294 220.482 102.79 220.482 102.173C220.482 101.613 220.3 101.193 219.936 100.913C219.571 100.633 219.039 100.437 218.339 100.324L213.927 99.5261C212.19 99.2179 210.845 98.5876 209.893 97.6352C208.968 96.6547 208.506 95.408 208.506 93.8953C208.506 92.4946 208.898 91.29 209.682 90.2815C210.467 89.245 211.545 88.4606 212.918 87.9283C214.319 87.3681 215.902 87.0879 217.666 87.0879C218.927 87.0879 220.09 87.2 221.154 87.4241C222.219 87.6482 223.241 88.0124 224.222 88.5166C224.726 88.7688 225.076 89.1049 225.272 89.5251C225.496 89.9453 225.566 90.3796 225.482 90.8278C225.426 91.276 225.258 91.6822 224.978 92.0464C224.698 92.4106 224.334 92.6487 223.885 92.7607C223.465 92.8728 222.975 92.8168 222.415 92.5927C221.518 92.1724 220.692 91.8783 219.936 91.7102C219.179 91.5141 218.451 91.4161 217.75 91.4161C216.49 91.4161 215.579 91.6262 215.019 92.0464C214.459 92.4386 214.179 92.9428 214.179 93.5591C214.179 94.0354 214.333 94.4416 214.641 94.7777C214.977 95.0859 215.481 95.296 216.154 95.408L220.566 96.2064C222.387 96.5146 223.773 97.1309 224.726 98.0554C225.678 98.9518 226.155 100.184 226.155 101.753C226.155 103.882 225.314 105.563 223.633 106.796C221.981 108 219.767 108.603 216.994 108.603Z" fill="#E80F0F"/>
<path d="M34.9324 108.519C33.8679 108.519 33.0555 108.238 32.4952 107.678C31.9349 107.118 31.6548 106.319 31.6548 105.283V90.3656C31.6548 89.329 31.9209 88.5447 32.4532 88.0124C33.0135 87.4521 33.7838 87.172 34.7643 87.172C35.7728 87.172 36.5432 87.4521 37.0755 88.0124C37.6077 88.5447 37.8739 89.329 37.8739 90.3656V92.5506H37.4537C37.7898 90.8698 38.5322 89.5672 39.6808 88.6427C40.8293 87.7182 42.3141 87.2 44.135 87.0879C44.8353 87.0319 45.3676 87.214 45.7318 87.6342C46.1239 88.0264 46.3341 88.6847 46.3621 89.6092C46.4181 90.4776 46.236 91.1639 45.8158 91.6682C45.4236 92.1724 44.7513 92.4806 43.7988 92.5927L42.8323 92.6767C41.2355 92.8168 40.0449 93.279 39.2606 94.0634C38.5042 94.8478 38.126 95.9823 38.126 97.4671V105.283C38.126 106.319 37.8459 107.118 37.2856 107.678C36.7533 108.238 35.9689 108.519 34.9324 108.519ZM102.771 116.082C101.735 116.082 100.95 115.802 100.418 115.242C99.8859 114.71 99.6198 113.911 99.6198 112.847V104.274H100.082C99.6338 105.563 98.7794 106.614 97.5188 107.426C96.2862 108.21 94.8575 108.603 93.2326 108.603C91.4398 108.603 89.857 108.168 88.4843 107.3C87.1396 106.432 86.0891 105.185 85.3327 103.56C84.5764 101.935 84.1982 100.016 84.1982 97.8032C84.1982 95.5901 84.5764 93.6852 85.3327 92.0884C86.0891 90.4916 87.1396 89.259 88.4843 88.3906C89.857 87.5221 91.4398 87.0879 93.2326 87.0879C94.8855 87.0879 96.3422 87.5081 97.6028 88.3486C98.8914 89.161 99.7319 90.2395 100.124 91.5842L99.6618 93.223V90.3656C99.6618 89.329 99.928 88.5447 100.46 88.0124C101.021 87.4521 101.805 87.172 102.813 87.172C103.822 87.172 104.592 87.4521 105.125 88.0124C105.685 88.5447 105.965 89.329 105.965 90.3656V112.847C105.965 113.911 105.685 114.71 105.125 115.242C104.564 115.802 103.78 116.082 102.771 116.082ZM95.1236 103.854C96.048 103.854 96.8464 103.63 97.5188 103.182C98.1911 102.734 98.7234 102.075 99.1156 101.207C99.5078 100.31 99.7039 99.1759 99.7039 97.8032C99.7039 95.7582 99.2836 94.2595 98.4432 93.307C97.6028 92.3265 96.4963 91.8363 95.1236 91.8363C94.2271 91.8363 93.4287 92.0464 92.7284 92.4666C92.0561 92.8868 91.5238 93.5451 91.1316 94.4416C90.7674 95.31 90.5853 96.4306 90.5853 97.8032C90.5853 99.8482 91.0055 101.375 91.846 102.384C92.6864 103.364 93.7789 103.854 95.1236 103.854ZM166.728 108.603C164.935 108.603 163.352 108.168 161.98 107.3C160.635 106.432 159.584 105.185 158.828 103.56C158.072 101.935 157.694 100.016 157.694 97.8032C157.694 95.5901 158.072 93.6852 158.828 92.0884C159.584 90.4916 160.635 89.259 161.98 88.3906C163.352 87.5221 164.935 87.0879 166.728 87.0879C168.353 87.0879 169.782 87.4801 171.014 88.2645C172.275 89.0489 173.129 90.0714 173.577 91.332H173.115V81.3731C173.115 80.3086 173.381 79.5102 173.914 78.9779C174.446 78.4176 175.23 78.1375 176.267 78.1375C177.275 78.1375 178.06 78.4176 178.62 78.9779C179.18 79.5102 179.46 80.3086 179.46 81.3731V105.283C179.46 106.319 179.18 107.118 178.62 107.678C178.088 108.238 177.317 108.519 176.309 108.519C175.3 108.519 174.516 108.238 173.956 107.678C173.423 107.118 173.157 106.319 173.157 105.283V102.426L173.619 104.064C173.227 105.437 172.387 106.544 171.098 107.384C169.838 108.196 168.381 108.603 166.728 108.603ZM168.619 103.854C169.543 103.854 170.342 103.63 171.014 103.182C171.686 102.734 172.219 102.075 172.611 101.207C173.003 100.31 173.199 99.1759 173.199 97.8032C173.199 95.7582 172.779 94.2595 171.939 93.307C171.098 92.3265 169.992 91.8363 168.619 91.8363C167.723 91.8363 166.924 92.0464 166.224 92.4666C165.551 92.8868 165.019 93.5451 164.627 94.4416C164.263 95.31 164.081 96.4306 164.081 97.8032C164.081 99.8482 164.501 101.375 165.341 102.384C166.182 103.364 167.274 103.854 168.619 103.854Z" fill="#FFE603"/>
<path d="M52.1655 108.477C51.129 108.477 50.3306 108.182 49.7703 107.594C49.2381 106.978 48.972 106.123 48.972 105.031V90.6597C48.972 89.5391 49.2381 88.6847 49.7703 88.0964C50.3306 87.4801 51.129 87.172 52.1655 87.172C53.174 87.172 53.9444 87.4801 54.4767 88.0964C55.037 88.6847 55.3171 89.5391 55.3171 90.6597V105.031C55.3171 106.123 55.051 106.978 54.5187 107.594C53.9864 108.182 53.202 108.477 52.1655 108.477ZM52.1655 83.7263C50.9889 83.7263 50.0785 83.4601 49.4342 82.9279C48.8179 82.3676 48.5097 81.5832 48.5097 80.5747C48.5097 79.5382 48.8179 78.7538 49.4342 78.2215C50.0785 77.6613 50.9889 77.3811 52.1655 77.3811C53.3421 77.3811 54.2386 77.6613 54.8549 78.2215C55.4712 78.7538 55.7793 79.5382 55.7793 80.5747C55.7793 81.5832 55.4712 82.3676 54.8549 82.9279C54.2386 83.4601 53.3421 83.7263 52.1655 83.7263ZM63.4094 108.519C62.3729 108.519 61.5745 108.238 61.0142 107.678C60.4819 107.118 60.2158 106.319 60.2158 105.283V90.3656C60.2158 89.329 60.4819 88.5447 61.0142 88.0124C61.5745 87.4521 62.3449 87.172 63.3253 87.172C64.3338 87.172 65.1042 87.4521 65.6365 88.0124C66.1687 88.5447 66.4349 89.329 66.4349 90.3656V92.7607L65.9726 91.3741C66.617 90.0014 67.5694 88.9509 68.8301 88.2225C70.1187 87.4661 71.5754 87.0879 73.2002 87.0879C74.853 87.0879 76.2117 87.4101 77.2762 88.0544C78.3408 88.6707 79.1392 89.6232 79.6714 90.9118C80.2037 92.1724 80.4698 93.7832 80.4698 95.7442V105.283C80.4698 106.319 80.1897 107.118 79.6294 107.678C79.0971 108.238 78.3128 108.519 77.2762 108.519C76.2677 108.519 75.4834 108.238 74.9231 107.678C74.3908 107.118 74.1247 106.319 74.1247 105.283V96.0384C74.1247 94.6097 73.8585 93.5871 73.3263 92.9708C72.822 92.3265 72.0376 92.0044 70.9731 92.0044C69.6285 92.0044 68.5499 92.4246 67.7375 93.265C66.9531 94.1054 66.5609 95.226 66.5609 96.6267V105.283C66.5609 107.44 65.5104 108.519 63.4094 108.519Z" fill="#139127"/>
<path d="M118.46 108.603C116.723 108.603 115.28 108.28 114.132 107.636C112.983 106.992 112.129 106.025 111.568 104.737C111.036 103.42 110.77 101.795 110.77 99.8623V90.3656C110.77 89.301 111.036 88.5026 111.568 87.9704C112.129 87.4381 112.913 87.172 113.922 87.172C114.93 87.172 115.715 87.4381 116.275 87.9704C116.835 88.5026 117.115 89.301 117.115 90.3656V100.03C117.115 101.263 117.367 102.187 117.872 102.804C118.376 103.392 119.174 103.686 120.267 103.686C121.471 103.686 122.452 103.266 123.208 102.426C123.993 101.557 124.385 100.423 124.385 99.0218V90.3656C124.385 89.301 124.651 88.5026 125.183 87.9704C125.744 87.4381 126.528 87.172 127.536 87.172C128.573 87.172 129.357 87.4381 129.89 87.9704C130.45 88.5026 130.73 89.301 130.73 90.3656V105.283C130.73 107.44 129.707 108.519 127.662 108.519C126.654 108.519 125.884 108.238 125.351 107.678C124.819 107.118 124.553 106.319 124.553 105.283V102.468L125.183 104.106C124.567 105.535 123.684 106.642 122.536 107.426C121.387 108.21 120.029 108.603 118.46 108.603ZM194.266 108.603C192.053 108.603 190.12 108.168 188.468 107.3C186.843 106.432 185.582 105.185 184.686 103.56C183.789 101.935 183.341 100.016 183.341 97.8032C183.341 96.1504 183.593 94.6657 184.097 93.349C184.602 92.0324 185.33 90.9118 186.282 89.9874C187.263 89.0349 188.426 88.3205 189.77 87.8443C191.115 87.3401 192.614 87.0879 194.266 87.0879C196.479 87.0879 198.398 87.5221 200.023 88.3906C201.676 89.259 202.951 90.4916 203.847 92.0884C204.772 93.6852 205.234 95.5901 205.234 97.8032C205.234 99.4841 204.968 100.983 204.435 102.299C203.931 103.616 203.203 104.751 202.25 105.703C201.298 106.656 200.135 107.384 198.763 107.888C197.418 108.364 195.919 108.603 194.266 108.603ZM194.266 103.854C195.191 103.854 195.989 103.63 196.662 103.182C197.334 102.734 197.866 102.075 198.258 101.207C198.651 100.31 198.847 99.1759 198.847 97.8032C198.847 95.7582 198.426 94.2595 197.586 93.307C196.746 92.3265 195.639 91.8363 194.266 91.8363C193.37 91.8363 192.572 92.0464 191.871 92.4666C191.199 92.8868 190.667 93.5451 190.274 94.4416C189.91 95.31 189.728 96.4306 189.728 97.8032C189.728 99.8482 190.148 101.375 190.989 102.384C191.829 103.364 192.922 103.854 194.266 103.854Z" fill="#0023A0"/>
<path d="M146.355 108.603C143.918 108.603 141.817 108.168 140.052 107.3C138.315 106.403 136.971 105.157 136.018 103.56C135.094 101.935 134.631 100.03 134.631 97.8453C134.631 95.7162 135.08 93.8533 135.976 92.2565C136.872 90.6317 138.119 89.3711 139.716 88.4746C141.341 87.5502 143.176 87.0879 145.221 87.0879C146.705 87.0879 148.05 87.3401 149.255 87.8443C150.459 88.3205 151.496 89.0209 152.364 89.9453C153.233 90.8418 153.891 91.9483 154.339 93.265C154.787 94.5536 155.011 95.9963 155.011 97.5931C155.011 98.1254 154.843 98.5316 154.507 98.8117C154.171 99.0639 153.681 99.1899 153.036 99.1899H139.842V95.9123H150.431L149.759 96.5006C149.759 95.352 149.591 94.3995 149.255 93.6432C148.918 92.8588 148.428 92.2705 147.784 91.8783C147.168 91.4861 146.397 91.29 145.473 91.29C144.436 91.29 143.554 91.5281 142.825 92.0044C142.097 92.4806 141.537 93.1669 141.145 94.0634C140.752 94.9598 140.556 96.0384 140.556 97.299V97.6352C140.556 99.7642 141.047 101.333 142.027 102.341C143.036 103.35 144.52 103.854 146.481 103.854C147.154 103.854 147.924 103.77 148.792 103.602C149.661 103.434 150.473 103.168 151.23 102.804C151.874 102.496 152.448 102.398 152.952 102.51C153.457 102.594 153.849 102.818 154.129 103.182C154.409 103.546 154.563 103.966 154.591 104.443C154.647 104.919 154.549 105.395 154.297 105.871C154.045 106.319 153.625 106.698 153.036 107.006C152.084 107.538 151.005 107.93 149.801 108.182C148.624 108.463 147.476 108.603 146.355 108.603Z" fill="#F70A0A"/>
<path d="M44.5808 70C42.4262 70 40.776 69.4499 39.6299 68.3497C38.5298 67.2037 37.9797 65.5764 37.9797 63.4677V28.0556C37.9797 25.9469 38.5298 24.3425 39.6299 23.2423C40.776 22.0963 42.4262 21.5233 44.5808 21.5233H61.3585C64.8424 21.5233 67.7992 22.0504 70.2287 23.1048C72.7041 24.1133 74.5836 25.5573 75.8672 27.4367C77.1507 29.3162 77.7925 31.5166 77.7925 34.0378C77.7925 36.88 76.9673 39.3095 75.3171 41.3265C73.7126 43.3435 71.5123 44.7188 68.716 45.4522V44.352C72.0165 44.948 74.5607 46.2773 76.3485 48.3402C78.1821 50.403 79.0989 53.0389 79.0989 56.2477C79.0989 60.5109 77.5633 63.8802 74.4919 66.3557C71.4664 68.7852 67.3178 70 62.0461 70H44.5808ZM50.0817 60.7172H60.3271C62.665 60.7172 64.3611 60.2817 65.4154 59.4108C66.5156 58.4939 67.0657 57.1416 67.0657 55.3538C67.0657 53.566 66.5156 52.2367 65.4154 51.3657C64.3611 50.4947 62.665 50.0592 60.3271 50.0592H50.0817V60.7172ZM50.0817 40.7764H59.0894C61.3814 40.7764 63.0546 40.3639 64.109 39.5387C65.2092 38.7136 65.7592 37.453 65.7592 35.7569C65.7592 34.0608 65.2092 32.8231 64.109 32.0438C63.0546 31.2186 61.3814 30.8061 59.0894 30.8061H50.0817V40.7764Z" fill="#E80F0F"/>
<path d="M93.4803 70.6189C91.6466 70.6189 90.2256 70.1146 89.2171 69.1061C88.2544 68.0976 87.7731 66.6765 87.7731 64.8429V26.6804C87.7731 24.8009 88.3002 23.3798 89.3546 22.4172C90.4089 21.4087 91.8987 20.9044 93.8241 20.9044C95.4285 20.9044 96.6891 21.2253 97.6059 21.8671C98.5686 22.463 99.4396 23.4715 100.219 24.8926L115.003 51.4344H112.596L127.311 24.8926C128.136 23.4715 129.007 22.463 129.924 21.8671C130.886 21.2253 132.17 20.9044 133.774 20.9044C135.608 20.9044 137.006 21.4087 137.969 22.4172C138.977 23.3798 139.482 24.8009 139.482 26.6804V64.8429C139.482 66.6765 139 68.0976 138.038 69.1061C137.075 70.1146 135.654 70.6189 133.774 70.6189C131.941 70.6189 130.52 70.1146 129.511 69.1061C128.549 68.0976 128.067 66.6765 128.067 64.8429V41.189H129.511L118.441 60.4422C117.799 61.4507 117.111 62.2071 116.378 62.7113C115.69 63.2156 114.75 63.4677 113.559 63.4677C112.413 63.4677 111.473 63.2156 110.739 62.7113C110.006 62.2071 109.341 61.4507 108.745 60.4422L97.6059 41.1203H99.1874V64.8429C99.1874 66.6765 98.7061 68.0976 97.7435 69.1061C96.7808 70.1146 95.3597 70.6189 93.4803 70.6189Z" fill="#FFE603"/>
<path d="M174.26 70.7564C168.897 70.7564 164.29 69.725 160.439 67.6621C156.589 65.5993 153.632 62.6884 151.569 58.9294C149.552 55.1705 148.544 50.7698 148.544 45.7273C148.544 41.9683 149.117 38.5532 150.263 35.4818C151.454 32.4105 153.151 29.7746 155.351 27.5743C157.597 25.3739 160.302 23.7007 163.465 22.5547C166.674 21.3628 170.272 20.7669 174.26 20.7669C176.369 20.7669 178.546 21.019 180.793 21.5233C183.085 21.9817 185.102 22.6922 186.844 23.6549C188.127 24.3425 189.021 25.2135 189.525 26.2678C190.03 27.3221 190.19 28.3994 190.007 29.4996C189.869 30.5998 189.479 31.5853 188.838 32.4563C188.196 33.3273 187.371 33.9232 186.362 34.2441C185.354 34.5192 184.254 34.3587 183.062 33.7628C181.687 33.121 180.311 32.6397 178.936 32.3188C177.607 31.9521 176.209 31.7687 174.742 31.7687C171.899 31.7687 169.516 32.3188 167.59 33.419C165.711 34.4733 164.29 36.0319 163.327 38.0948C162.365 40.1576 161.883 42.7018 161.883 45.7273C161.883 48.7528 162.365 51.3198 163.327 53.4285C164.29 55.4914 165.711 57.0729 167.59 58.1731C169.516 59.2274 171.899 59.7546 174.742 59.7546C175.933 59.7546 177.217 59.617 178.592 59.342C179.967 59.0211 181.32 58.5398 182.649 57.898C184.024 57.3021 185.239 57.1416 186.294 57.4167C187.394 57.6917 188.265 58.2418 188.906 59.067C189.594 59.8921 190.03 60.8547 190.213 61.9549C190.396 63.0093 190.236 64.0636 189.732 65.1179C189.273 66.1723 188.448 67.0203 187.256 67.6621C185.652 68.6248 183.658 69.3811 181.274 69.9312C178.936 70.4813 176.598 70.7564 174.26 70.7564Z" fill="#0023A0"/>
</svg>
